<svg xmlns="http://www.w3.org/2000/svg" viewBox="0 0 54.51 54.12"><defs><style>.cls-1{fill:#e2e2e2;stroke:#e2e2e2;stroke-miterlimit:10;stroke-width:0.57px;}</style></defs><g><path class="cls-1" d="M61.89,43.33l-3.63,5.46-7.42-4.64a8,8,0,0,0-1.56-6.59L54,30.1l5.68,4a20.85,20.85,0,0,0,3.09-8.76c.33-5.27-2.86-9.35-8.2-9.38C48,15.91,44,23.08,44,23.08L49.6,27l-4.9,7.7a7.92,7.92,0,0,0-6.6,1.49l-8.43-5.27,3.73-5.51a20.76,20.76,0,0,0-8.81-2.95c-5.27-.24-9.3,3-9.24,8.35.07,6.61,7.31,10.47,7.31,10.47l4-5.89,8.55,5.35a8,8,0,0,0-.2,1.78,7.94,7.94,0,0,0,1.64,4.84l-5.18,8.12L25.54,51.4a20.78,20.78,0,0,0-3,8.79c-.29,5.26,2.93,9.32,8.27,9.31,6.61,0,10.53-7.22,10.53-7.22L35.9,58.55l5.25-8.24A8,8,0,0,0,48,48.76l7.25,4.53-4,6a20.84,20.84,0,0,0,8.83,2.88c5.27.21,9.28-3.08,9.18-8.42C69.16,47.13,61.89,43.33,61.89,43.33Z" transform="translate(-15.07 -15.66)"/></g></svg>