<svg xmlns="http://www.w3.org/2000/svg" viewBox="0 0 68.9 53.57"><defs><style>.cls-1{fill:#e2e2e2;}</style></defs><g><path class="cls-1" d="M42.93,51.13c-.57-1.3,1.48-1.85,2.47-2.43s1.79-1.86,1.19-2.57c-1.06-1.25-8.18-1.32-11.48-.94-3.51.41-5.73-1.22-5.75-4,0-2,2.33-4,5.36-5.23,2.85-1.14,6.71-.85,7.3-.2,1.73,1.91-5.11,3.52-3.52,5.88.79,1.17,7.58.28,11.37,1.25,3.12.8,5,1.93,5.06,3.54.1,1.83-1.92,3.57-5,4.64C47.15,52,43.21,51.76,42.93,51.13Zm33.25-4.67c-1.12-1.44-3.82-1.22-6,.5a3.53,3.53,0,0,1-2.7.43c-.3-.06-.57-.69-.15-1.37a39.91,39.91,0,0,1,4.85-5.14c2-2,2.53-4.63,1.24-5.93s-4-.73-5.92,1.24c-1.22,1.22-2.42,7.1-5.72,6.35-.74-.45,1.54-4.59,2.16-5.61.52-.85,3.38-5.05,3.38-7.5,0-2.8-1.48-5.07-3.31-5.07s-3,1.88-3.67,4.6c-1,4.18-.73,10.43-3.17,10.42-3.56,0-.92-16.72-3.88-20.82-1.64-2.26-3.65-3.26-5.14-2.2s-1.77,4.5-.35,6.91,2.09,6.88.79,7.54c-1.62.81-3.88-8.1-5.1-10-1.4-2.23-3.23-3.2-5-2.27s-1.8,3.57.09,5.63c1.16,1.27,3.82,2.61,2.93,5.86-.49.73-2.73-1.38-3.62-2.14S35.18,24,32.73,23.92c-2.79-.13-3.44,1.49-2.51,3.3a11.43,11.43,0,0,0,4.17,3.54c.86.49.59,2.34-.86,2.52-4.11.21-13.22-.22-15.52.28-3.77.24-6,2.09-7.62,3.33-2.23,1.68-3.16,4.22-2.06,5.68s3.8,1.29,6-.39a3.49,3.49,0,0,1,2.7-.4c.3.07.56.7.13,1.37-1.07,1.65-4.13,4.3-4.93,5.07-2,2-2.6,4.59-1.33,5.9s3.93.8,5.94-1.14c1.23-1.2,2.53-7,5.81-6.26.74.47-1.61,4.57-2.25,5.58-.53.85-3.46,5-3.5,7.45,0,2.79,1.4,5.08,3.23,5.11s3-1.82,3.75-4.53c1.06-4.16,1.72-10.11,4.13-10.47,2.11-.31,2.08,8.86,2.31,10.44s1.3,5.36,2.64,6.92c1.81,2.12,3.93,2.92,5.32,1.73S39.67,64.31,38,62s-2.7-5.69-1.33-6.19c1.7-.61,3.77,5.89,5.61,8.47,1.67,2.33,3.74,3.91,5.37,2.82s1.47-4.93-.6-6.81c-1.27-1.16-4-2-3.43-5.3.42-.77,2.22,0,3.63,2,.57.81,3.7,7.34,6.15,7.31,3.58,0,3.48-2.85,2.38-4.57-.35-.57-2.07-2.13-3.58-4.09-.64-.84-1.4-3.34,3.71-3,4,.28,14.65,3.1,18.68,0,2.22-1.69,2.67-4.77,1.55-6.21Z" transform="translate(-7.87 -15.93)"/></g></svg>