<svg xmlns="http://www.w3.org/2000/svg" viewBox="0 0 46.12 55.61"><defs><style>.cls-1{fill:#e2e2e2;}</style></defs><g><path class="cls-1" d="M53.59,65.36c-.89.82-2.72,1.84-5.53-.58a6.66,6.66,0,0,1-2.56-4.36,1.11,1.11,0,0,1,1-1.22c1.47-.13,5,0,5-3.4,0-2.71-4-6.27-5.55-8.95a6.64,6.64,0,0,1,0-7c1.59-2.68,5.59-6.24,5.55-8.94,0-3.37-3.53-3.28-5-3.41a1.11,1.11,0,0,1-1-1.22,6.66,6.66,0,0,1,2.56-4.36c2.81-2.42,4.64-1.4,5.53-.58,2.08,2,4.81,5.93,4.6,9.47-.12,2.19-3.15,8-4.82,11.12a3,3,0,0,0,0,2.88c1.67,3.09,4.7,8.94,4.82,11.12C58.4,59.43,55.67,63.41,53.59,65.36ZM38.13,59.2a1.12,1.12,0,0,1,1,1.22,6.66,6.66,0,0,1-2.56,4.36c-2.81,2.42-4.64,1.4-5.53.58-2.08-2-4.81-5.93-4.6-9.47.12-2.18,3.15-8,4.82-11.12a3,3,0,0,0,0-2.88c-1.67-3.08-4.7-8.93-4.82-11.12-.21-3.54,2.52-7.51,4.6-9.47.89-.82,2.72-1.84,5.53.58a6.66,6.66,0,0,1,2.56,4.36,1.12,1.12,0,0,1-1,1.22c-1.47.13-5,0-5,3.41,0,2.7,4,6.26,5.55,8.94a6.64,6.64,0,0,1,0,7c-1.59,2.68-5.59,6.24-5.55,8.95C33.17,59.16,36.66,59.07,38.13,59.2ZM52,14.91c-3.78,0-7.19,3.25-9.63,8.46-2.44-5.21-5.86-8.46-9.64-8.46-7.41,0-13.42,12.46-13.42,27.81s6,27.81,13.42,27.81c3.79,0,7.2-3.24,9.64-8.45,2.44,5.21,5.85,8.45,9.63,8.45,7.42,0,13.43-12.46,13.43-27.81S59.37,14.91,52,14.91Z" transform="translate(-19.26 -14.91)"/></g></svg>