<svg xmlns="http://www.w3.org/2000/svg" viewBox="0 0 49.26 52.58"><defs><style>.cls-1{fill:#e2e2e2;}</style></defs><g><path class="cls-1" d="M27.24,23.25c-5.3,1.87-3.68,11.3-2.43,14.84,3.5,10,13.09,19.24,17.23,23C46.09,57.34,55.7,47.9,59,38.44c1.24-3.53,4.52-13-3.13-15-4.63-1.21-8.35,3.69-9.92,7.3a87.44,87.44,0,0,0-3.22,8.87s-2.52-4.17-4.87-8.87C35.35,25.7,32.85,21.27,27.24,23.25ZM42.06,69,40.6,67.76c-2.79-2.4-16.94-15-21.33-27.52C17,33.69,16.41,24.56,23,19.09A11.73,11.73,0,0,1,37.49,19c3,2.23,4.36,5.95,4.88,8.09,1-2.24,1.42-6.44,6.48-9.06,6-3.09,10.22-.88,12.84.85,7.17,4.72,5.64,14.86,3.35,21.41C60.61,52.86,44.2,67.15,43.51,67.75Z" transform="translate(-17.69 -16.43)"/></g></svg>