<svg xmlns="http://www.w3.org/2000/svg" viewBox="0 0 55.83 32.49"><defs><style>.cls-1{fill:#e2e2e2;stroke:#e2e2e2;stroke-miterlimit:10;stroke-width:0.71px;}</style></defs><g><path class="cls-1" d="M41.17,56.78c-12.17,0-24.56-4.55-24.56-9,0-1,.66-1.86,2-2.69a10.66,10.66,0,0,1,4.35-1.16c1.42-.06,5.77,0,5.77,0l5.84,5.81,5.89-5.89h3.25l5.9,5.89,5.89-5.89,5.65,0a10.68,10.68,0,0,1,4.79,1.41C67.33,46,68,46.89,68,47.77,68,51.7,55,56.78,41.17,56.78ZM16.59,37.67c0-4.46,12.4-9,24.57-9C55,28.66,68,33.74,68,37.67c0,.88-.72,1.75-2.13,2.57a8.65,8.65,0,0,1-4.39,1.4l-6.06,0-5.89-5.88-5.89,5.88H40.41l-5.89-5.88-5.89,5.88-5.85.12a9.66,9.66,0,0,1-4.21-1.38C17.26,39.53,16.59,38.62,16.59,37.67Zm13.94,5.06c0-.84,1.67-1.53,3.75-1.53,1.68,0,3.1.45,3.58,1.08a.7.7,0,0,1,.15.43c0,.84-1.68,1.53-3.75,1.53-1.68,0-3.1-.45-3.58-1.08A.7.7,0,0,1,30.53,42.73Zm18.92,1.48c-2.07,0-3.75-.69-3.75-1.53v-.07c.2-.78,1.8-1.38,3.74-1.38s3.74.69,3.74,1.53v.08C53,43.61,51.39,44.21,49.45,44.21Zm17.39-.59a17,17,0,0,0-2-.9,17.26,17.26,0,0,0,1.94-.9c2-1.17,3-2.57,3-4.15,0-6-15.7-10.84-28.7-10.84-12.47,0-26.4,4.63-26.4,10.84a4.59,4.59,0,0,0,2.3,4.12,6.83,6.83,0,0,0,2.06.93,7.06,7.06,0,0,0-2,.93c-1.8,1.31-2.31,2.49-2.31,4.12,0,6.21,13.94,10.84,26.4,10.84,13,0,28.71-4.83,28.71-10.84C69.88,46.19,68.85,44.8,66.84,43.62Z" transform="translate(-14.4 -26.47)"/></g></svg>