<svg xmlns="http://www.w3.org/2000/svg" viewBox="0 0 41.62 63.54"><defs><style>.cls-1{fill:#e2e2e2;fill-rule:evenodd;}</style></defs><g><path class="cls-1" d="M46.27,28.65C43.09,17.49,20.84,22.92,32,41.05c-3.58.19-8.19,1-10.49,2.72,2.39,1.57,7,2.34,10.34,2.47C21,66.91,44.87,67.92,46.12,58.43c-4.32,2.26-11.65-1-9.24-7,1.68-4.24,10.39-6.38,14.52-3,3.72,3,4.39,9.89,2,15-2.56,5.53-8.09,9-9.12,11.13,8.13-.92,14.06-5.42,16.77-10.76,4.39-8.68,1.1-15.88-4.27-19.9,4-6.14,9.16-9.13,4-20.72C58,16.65,53.06,11.74,44.44,11c.82,2.37,2.67,3.16,4.46,5a30.47,30.47,0,0,1,4.29,6.23c2,4.8,2.08,12.27-1.25,16C48.49,42,40,40.73,37.38,36.7,34.28,32,39.43,25.57,46.27,28.65Z" transform="translate(-21.51 -10.95)"/></g></svg>