<svg xmlns="http://www.w3.org/2000/svg" viewBox="0 0 51.68 51.53"><defs><style>.cls-1{fill:#e2e2e2;}</style></defs><g><path class="cls-1" d="M35.31,50.18l-.39-.39a1.72,1.72,0,0,0-2.43,0L30.2,52.08V33.54l2.29,2.29a1.72,1.72,0,0,0,2.43,0l.39-.4a1.72,1.72,0,0,0,0-2.43L33,30.67v-.16h18.8L49.29,33a1.7,1.7,0,0,0,0,2.43l.38.4a1.73,1.73,0,0,0,2.44,0l2.5-2.5V52.14h-.15l-2.35-2.35a1.73,1.73,0,0,0-2.44,0l-.38.39a1.71,1.71,0,0,0,0,2.44l2.29,2.3H33l2.29-2.3A1.73,1.73,0,0,0,35.31,50.18ZM66.09,22.57a17.93,17.93,0,0,0-6.82,5.32,1.41,1.41,0,0,1-2.09.18l0,0A1.41,1.41,0,0,1,57.33,26a17.75,17.75,0,0,0,5.33-6.81c.9-2-.69-2.93-2.34-1.47a29.23,29.23,0,0,1-18.4,7c-4.85,0-13.46-3.85-17.38-6.12-1.91-1.12-3.87.49-2.6,2.3a20.22,20.22,0,0,0,5.7,5A1.44,1.44,0,0,1,28,27.92l-.2.2A1.43,1.43,0,0,1,25.68,28a17.9,17.9,0,0,0-6.87-5.39c-2-.9-3.12.61-1.67,2.27A29.53,29.53,0,0,1,24.3,43.31c0,4.85-3.36,13-5.63,16.95-1.12,1.91.23,3.89,2,2.62a18.08,18.08,0,0,0,4.79-5.41,1.45,1.45,0,0,1,2.08-.42,2.91,2.91,0,0,1,.61.65,1.43,1.43,0,0,1-.44,2,18.17,18.17,0,0,0-5.4,4.79c-1.27,1.81.71,3.16,2.62,2,3.92-2.27,12.1-5.63,17-5.63a27.58,27.58,0,0,1,17.86,6.8c1.65,1.45,3.78.69,2.88-1.31a17.9,17.9,0,0,0-5.44-6.91,1.42,1.42,0,0,1-.29-1.94,3.22,3.22,0,0,1,.35-.38,1.44,1.44,0,0,1,2.16.31,26.25,26.25,0,0,0,5.87,6.3c1.81,1.27,3.16-.71,2-2.63-2.28-3.91-6.74-13-6.74-17.86A29.87,29.87,0,0,1,67.4,24.62C68.86,23,68.1,21.67,66.09,22.57Z" transform="translate(-16.48 -16.96)"/></g></svg>