<svg xmlns="http://www.w3.org/2000/svg" viewBox="0 0 39.73 54.41"><defs><style>.cls-1{fill:#e2e2e2;}</style></defs><g><path class="cls-1" d="M57.24,25.47s1.91,14.44-.5,22.52c-1.89,6.37-5.85,10.38-9.44,10.13a2.1,2.1,0,0,1-2.13-2c-.06-1.2.91-2.58,2.27-3.64,2-1.59,4.56-2,4.74-3.79.4-4.27-5.57-.54-8-2.41A2.29,2.29,0,0,1,44.46,43c1.75-1.66,9.38-3.79,8.12-7.2-.62-1.68-5.25.7-7.69.14-1.92-.44-1.08-3.17-.37-4.34l0,0c1.65-2.73,3.71-3.78,6.69-7.93a5.92,5.92,0,0,0,1.26-4.06,4.22,4.22,0,0,0-8.38.75c0,.4,0,.92-.28,1.16-.66.55-2.12.45-3,.25s-.87-1.66-.94-2-.2-1.15-.34-1.64a3.61,3.61,0,0,0-2.7-2.55,3.73,3.73,0,0,0-4.58,3.62,5.12,5.12,0,0,0,.44,2.05c.14.33,1,2.14.8,2.28a19.75,19.75,0,0,0-6.13,4.62c-7.55,9-4.23,27.21-4.23,27.21A73.66,73.66,0,0,1,28.07,39c2.71-6.07,8.13-10,11.72-10.24.72-.06.82,1,.82,2.16a3.41,3.41,0,0,1-1.68,2.94c-3,1.78-6.17,4-6.38,5.54-.1.69.78,1.72,2.44,1.86,2.47.22,3.67-1,5.19-.08s.92,3.34-2.38,4.47a26.75,26.75,0,0,0-3.45,1.41c-2.65,1.46-3.24,4.25-1.89,5.17,2.46,1.67,4.86-2.68,7.75-.92,1,.63.54,2.28-.06,3-2.28,2.9-3.47,1.63-6.31,5a10.82,10.82,0,0,0-1.72,2.43A6.16,6.16,0,0,0,31.51,64,4.51,4.51,0,0,0,35,68.84,4.21,4.21,0,0,0,39.72,66a2.07,2.07,0,0,1,1.3-1.3,9,9,0,0,1,2.52-.26.64.64,0,0,1,.68.8,3.71,3.71,0,0,0,.1,2.15,3.82,3.82,0,0,0,7.43-1.26A6.27,6.27,0,0,0,51,63.26a.41.41,0,0,1,.18-.58A15.5,15.5,0,0,0,57.09,58C68.47,43.24,57.24,25.47,57.24,25.47Z" transform="translate(-22.45 -15.52)"/></g></svg>