<svg xmlns="http://www.w3.org/2000/svg" viewBox="0 0 62.73 60.4"><defs><style>.cls-1{fill:#e2e2e2;}</style></defs><g><path class="cls-1" d="M66.78,66.05C64.75,68,59.53,68.93,53,62.9,47.9,58.24,46.51,52.32,48.32,49l7,7a3.92,3.92,0,0,0-.42,1.78,3.93,3.93,0,1,0,1.86-3.33l-7.06-7.11c3.09-2.24,9-1.07,13.85,4.22C68.22,56.66,70.09,62.91,66.78,66.05ZM42.32,47.76c-3.79,0-6.86-2.26-6.86-5s3.07-5,6.86-5,6.86,2.26,6.86,5S46.11,47.76,42.32,47.76ZM31.66,62.9c-6.55,6-11.78,5.06-13.81,3.15-3.3-3.14-1.43-9.39,3.22-14.42,4.88-5.29,10.75-6.46,13.85-4.22l-7.07,7.11a3.83,3.83,0,0,0-2-.59,3.89,3.89,0,1,0,3.86,3.92,3.94,3.94,0,0,0-.44-1.78l7-7C38.12,52.32,36.74,58.24,31.66,62.9ZM21.07,33.81c-4.65-5-6.52-11.28-3.22-14.42,2-1.91,7.26-2.88,13.81,3.14,5.08,4.67,6.46,10.59,4.65,13.89l-7-7a3.85,3.85,0,0,0-3.49-5.64,3.89,3.89,0,0,0,.07,7.77,3.73,3.73,0,0,0,2-.58L34.92,38C31.82,40.27,26,39.1,21.07,33.81ZM53,22.53c6.56-6,11.78-5.05,13.81-3.14,3.31,3.14,1.44,9.38-3.21,14.42C58.68,39.1,52.81,40.27,49.72,38l7.06-7.1a3.77,3.77,0,0,0,2,.58,3.89,3.89,0,1,0-3.85-3.91,3.21,3.21,0,0,0,.14,1L48,35.55c-1.18-3.39.37-8.73,5-13ZM67.11,46.39a19.77,19.77,0,0,0-6.17-3.67A20,20,0,0,0,67.11,39c7.14-6.21,8.71-16.15,3.5-22.14A13.26,13.26,0,0,0,60,12.53a19,19,0,0,0-11.78,4.81,19.39,19.39,0,0,0-5.86,8.92,19.34,19.34,0,0,0-5.87-8.92,18.93,18.93,0,0,0-11.78-4.81A13.21,13.21,0,0,0,14,16.9c-5.22,6-3.65,15.93,3.49,22.14a19.84,19.84,0,0,0,6.16,3.68,19.62,19.62,0,0,0-6.16,3.67C10.39,52.62,8.82,62.55,14,68.54a13.24,13.24,0,0,0,10.63,4.37A18.93,18.93,0,0,0,36.45,68.1a19.24,19.24,0,0,0,5.87-8.92,19.29,19.29,0,0,0,5.86,8.92A19,19,0,0,0,60,72.91a13.29,13.29,0,0,0,10.65-4.37C75.82,62.55,74.25,52.62,67.11,46.39Z" transform="translate(-10.95 -12.52)"/></g></svg>