<svg xmlns="http://www.w3.org/2000/svg" viewBox="0 0 60.93 53.97"><defs><style>.cls-1{fill:#373435;}</style></defs><g id="Camada_2" data-name="Camada 2"><g id="Camada_1-2" data-name="Camada 1"><g id="Camada_1-3" data-name="Camada_1"><path class="cls-1" d="M35.79,9.25a2.35,2.35,0,1,1,2.35,2.35A2.36,2.36,0,0,1,35.79,9.25Zm7.55-5.7A2.36,2.36,0,1,1,41,5.91,2.36,2.36,0,0,1,43.34,3.55Zm6.5.5A2.36,2.36,0,1,1,47.49,6.4,2.35,2.35,0,0,1,49.84,4.05Zm-3.1,36.39a4.86,4.86,0,1,1-4.86,4.86A4.87,4.87,0,0,1,46.74,40.44ZM19.06,45.3a4.86,4.86,0,1,1-4.86-4.86A4.87,4.87,0,0,1,19.06,45.3Zm3.73-33.7a2.36,2.36,0,1,1,2.35-2.35A2.35,2.35,0,0,1,22.79,11.6Zm-5.2-3.34A2.36,2.36,0,1,1,20,5.91,2.35,2.35,0,0,1,17.59,8.26Zm-6.5.5A2.36,2.36,0,1,1,13.44,6.4,2.36,2.36,0,0,1,11.09,8.76ZM45.4,12c9.12-4,15.53-3.23,15.53-3.23S52.46-6.48,38.08,3.24c-3.39,2.29-5.6,5.43-7.61,9-2-3.56-4.22-6.7-7.61-9C8.48-6.48,0,8.76,0,8.76S6.42,8,15.54,12c4.84,2.1,9.09,6.81,10.47,8.45-1.16,2.08-2.85,5.45-4.06,7.36l-.56,0a5.73,5.73,0,0,0-4.23,9.62l-1.6,2.41a5.57,5.57,0,0,0-1.36-.17,5.66,5.66,0,0,0-3.78,9.87L8,54l3.22-3.86a5.66,5.66,0,0,0,7-8.76L19.78,39a5.74,5.74,0,0,0,6.52-8.49l4.17-4.87,4.16,4.87a5.67,5.67,0,0,0-.83,3A5.74,5.74,0,0,0,41.15,39l1.54,2.31a5.65,5.65,0,0,0,7,8.76L52.94,54l-2.43-4.46a5.65,5.65,0,0,0-5.14-9.7l-1.6-2.41a5.73,5.73,0,0,0-4.23-9.62l-.56,0c-1.21-1.91-2.89-5.28-4.06-7.36C36.3,18.8,40.56,14.09,45.4,12Z"/></g></g></g></svg>