<svg xmlns="http://www.w3.org/2000/svg" viewBox="0 0 53.97 53.97"><defs><style>.cls-1{fill:#373435;}</style></defs><g id="Camada_1-2" data-name="Camada_1"><g id="_2191730133504" data-name=" 2191730133504"><path class="cls-1" d="M39.92,21.45h-2.4V19h2.4Zm0,3.8h-2.4v-2.4h2.4Zm0,3.81h-2.4V26.65h2.4Zm0,3.8h-2.4v-2.4h2.4Zm0,3.8h-2.4v-2.4h2.4Zm0,3.81h-2.4V38.06h2.4Zm-3.8-19H33.71V19h2.41Zm0,3.8H33.71v-2.4h2.41Zm0,3.81H33.71V26.65h2.41Zm0,3.8H33.71v-2.4h2.41Zm0,3.8H33.71v-2.4h2.41Zm0,3.81H33.71V38.06h2.41Zm-3.81-19h-2.4V19h2.4Zm0,3.8h-2.4v-2.4h2.4Zm0,3.81h-2.4V26.65h2.4Zm0,3.8h-2.4v-2.4h2.4Zm0,3.8h-2.4v-2.4h2.4Zm0,3.81h-2.4V38.06h2.4Zm-3.8-19H26.1V19h2.41Zm0,3.8H26.1v-2.4h2.41Zm0,3.81H26.1V26.65h2.41Zm0,3.8H26.1v-2.4h2.41Zm0,3.8H26.1v-2.4h2.41Zm0,3.81H26.1V38.06h2.41Zm-3.81-19H22.3V19h2.4Zm0,3.8H22.3v-2.4h2.4Zm0,3.81H22.3V26.65h2.4Zm0,3.8H22.3v-2.4h2.4Zm0,3.8H22.3v-2.4h2.4Zm0,3.81H22.3V38.06h2.4Zm-3.8-19H18.5V19h2.4Zm0,3.8H18.5v-2.4h2.4Zm0,3.81H18.5V26.65h2.4Zm0,3.8H18.5v-2.4h2.4Zm0,3.8H18.5v-2.4h2.4Zm0,3.81H18.5V38.06h2.4ZM17.42,18V41.55H41V18Z" transform="translate(-15.33 -15.73)"/><path class="cls-1" d="M66.15,47.35h-2.4V44.94h2.4Zm0,3.8h-2.4v-2.4h2.4Zm0,3.81h-2.4V52.55h2.4Zm0,3.79h-2.4V56.36h2.4Zm0,3.81h-2.4v-2.4h2.4Zm0,3.81h-2.4V64h2.4Zm-3.8-19H59.94V44.94h2.41Zm0,3.8H59.94v-2.4h2.41Zm0,3.81H59.94V52.55h2.41Zm0,3.79H59.94V56.36h2.41Zm0,3.81H59.94v-2.4h2.41Zm0,3.81H59.94V64h2.41Zm-3.81-19h-2.4V44.94h2.4Zm0,3.8h-2.4v-2.4h2.4Zm0,3.81h-2.4V52.55h2.4Zm0,3.79h-2.4V56.36h2.4Zm0,3.81h-2.4v-2.4h2.4Zm0,3.81h-2.4V64h2.4Zm-3.8-19H52.33V44.94h2.41Zm0,3.8H52.33v-2.4h2.41Zm0,3.81H52.33V52.55h2.41Zm0,3.79H52.33V56.36h2.41Zm0,3.81H52.33v-2.4h2.41Zm0,3.81H52.33V64h2.41Zm-3.81-19H48.54V44.94h2.39Zm0,3.8H48.54v-2.4h2.39Zm0,3.81H48.54V52.55h2.39Zm0,3.79H48.54V56.36h2.39Zm0,3.81H48.54v-2.4h2.39Zm0,3.81H48.54V64h2.39Zm-3.8-19h-2.4V44.94h2.4Zm0,3.8h-2.4v-2.4h2.4Zm0,3.81h-2.4V52.55h2.4Zm0,3.79h-2.4V56.36h2.4Zm0,3.81h-2.4v-2.4h2.4Zm0,3.81h-2.4V64h2.4Zm-3.48-22.5V67.45H67.22V43.87Z" transform="translate(-15.33 -15.73)"/><path class="cls-1" d="M43.72,67.49V44.12H67.09V67.49ZM17.55,44.12H40.92V67.49H17.55ZM40.92,18V41.32H17.55V18ZM67.09,41.32H43.72V18H67.09ZM15.33,15.73v54h54v-54Z" transform="translate(-15.33 -15.73)"/></g></g></svg>