<svg xmlns="http://www.w3.org/2000/svg" viewBox="0 0 33.13 62.66"><defs><style>.cls-1{fill:#e2e2e2;stroke:#e2e2e2;stroke-miterlimit:10;stroke-width:0.57px;}</style></defs><g><path class="cls-1" d="M56.54,49.51c0,4.8-3.49,9-8.81,10.77V48.7a16.44,16.44,0,0,0,7.32-4.37A9.87,9.87,0,0,1,56.54,49.51ZM47.73,36.59V25c5.25,1.78,8.81,6.06,8.81,10.77A9.88,9.88,0,0,1,55.05,41,16.46,16.46,0,0,0,47.73,36.59ZM36.9,60.28c-5.32-1.77-8.8-6-8.8-10.77a9.87,9.87,0,0,1,1.49-5.18,16.28,16.28,0,0,0,7.31,4.36Zm-8.8-24.5c0-4.71,3.55-9,8.8-10.77V36.59A16.52,16.52,0,0,0,29.59,41,9.88,9.88,0,0,1,28.1,35.78Zm30.5,0c0-5.79-4.43-11-10.87-12.91V11.67H45.67V38.19l.79.19a14.31,14.31,0,0,1,7.32,4.27,14.16,14.16,0,0,1-6.05,3.9c-.41.13-.84.27-1.27.37-.26.06-.52.12-.79.16V60.83a17.66,17.66,0,0,1-6.72,0V47.08c-.26,0-.52-.1-.78-.16-.43-.12-.85-.24-1.27-.38a14.14,14.14,0,0,1-6-3.89,14.45,14.45,0,0,1,7.32-4.27l.78-.2V11.67H36.9v11.2C30.47,24.78,26,30,26,35.78a12,12,0,0,0,2.2,6.87A12,12,0,0,0,26,49.51c0,5.9,4.32,11,10.86,12.93V73.77H39V62.92a18.86,18.86,0,0,0,3.37.3,18.55,18.55,0,0,0,3.35-.3V73.77h2.06V62.44c6.54-1.92,10.87-7,10.87-12.93a12,12,0,0,0-2.2-6.86A12,12,0,0,0,58.6,35.78Z" transform="translate(-25.75 -11.39)"/></g></svg>