<svg xmlns="http://www.w3.org/2000/svg" viewBox="0 0 54.52 62.65"><defs><style>.cls-1{fill:#e2e2e2;}</style></defs><g><path class="cls-1" d="M30.15,22.57c0-2.42,2.19-4.55,5.52-5.77a3.41,3.41,0,0,0-1.38,2.56c0,2.54,3.64,4.61,8.13,4.61s8.13-2.07,8.13-4.61a3.27,3.27,0,0,0-1.26-2.44c3.16,1.23,5.22,3.3,5.22,5.65,0,3.8-5.45,6.89-12.18,6.89S30.15,26.37,30.15,22.57ZM69.58,44.2V41.38a4.33,4.33,0,0,0-4.34-4.33H52.4v-5.9c5.24-1.91,8.73-5.23,8.73-9,0-5.93-8.49-10.74-19-10.74s-19,4.81-19,10.74c0,3.79,3.48,7.11,8.73,9v5.9H19.4a4.33,4.33,0,0,0-4.34,4.33V71.32h0s0,0,0,.07a2.66,2.66,0,0,0,5.32,0,.15.15,0,0,0,0-.07h0V44.2h4.56V71.32h0s0,0,0,.07a2.66,2.66,0,0,0,5.32,0,1.36,1.36,0,0,0,0-.2v-27h4.51V71.32h0s0,0,0,.07a2.66,2.66,0,1,0,5.32,0c0-.07,0-.13,0-.2v-27H44.6V71.32h0a.15.15,0,0,0,0,.07,2.66,2.66,0,1,0,5.32,0c0-.07,0-.13,0-.2v-27h4.51V71.32h0v.07a2.66,2.66,0,1,0,5.32,0c0-.07,0-.13,0-.2v-27h4.49V71.32h0v.07a2.66,2.66,0,0,0,5.32,0c0-.07,0-.13,0-.2v-27Z" transform="translate(-15.06 -11.39)"/></g></svg>