<svg xmlns="http://www.w3.org/2000/svg" viewBox="0 0 45.44 59.81"><defs><style>.cls-1{fill:#e2e2e2;}</style></defs><g><path class="cls-1" d="M60.38,61.38c2.19,0,4.66-1.21,4.66-2.65s-3-2.84-5.2-2.84-1.74.67-2.89,1.54c-.52.4-1,2-2.1,2.7a5.9,5.9,0,0,1-2.89.74c-1.14,0-3.61-1.73-3.54-2.86.16-2.64,6.65-2.35,8.3-3.74C59,52.37,61,49.82,60,48.72s-5.12-.22-7.36,1.67a18,18,0,0,0-2.24,2.09c-1,1.15-2.4,3-4,3.33-.79.14-3.21-2-3.17-2.44a2.73,2.73,0,0,1,.28-.93c1-.52,2.11-1.16,2.7-1.36,1.23-.42,2.91-.46,4.05-1.42,2.24-1.9,3.3-4.32,2.37-5.42s-3.49-.45-5.73,1.45C45.39,47,44,51,41.9,51.09c-1.44,0-2.89-2.74-2.71-4.16a4,4,0,0,1,2.2-2.72c1.22-.42,2.9-.46,4-1.42,2.24-1.9,4.15-4,3.22-5.06s-4.34-.81-6.58,1.09c-1.45,1.23-2.28,5.85-4.58,6-1.06.08-2.13-2.45-2.44-3.46-.26-.84-.44-2.81.08-3.52.67-.9,2.48-1,3.22-1.3,1.21-.43,2.9-.46,4-1.43,2.24-1.89,4.15-4,3.22-5.05s-5.7-.89-6.48.29-2.06,5.39-3.94,4.69c-1.09-.41-.68-5.31,1.82-6.19a40.83,40.83,0,0,0,3.89-1.64c2.35-1.18,3.36-2.12,2.56-3.07s-4.91-.76-5.58.25c-.87,1.3-1.63,4-3,3.69-1.57-.35-.55-4.81.55-6,.72-.76,2.31-.14,3.24-.4,2.54-.7,3.71-1.44,3.11-2.52-.5-.9-3.37-1.46-4.83-1.14a9.83,9.83,0,0,0,.16-1.55c0-2.63-.4-4-1.6-3.66s-2.88,4-2.27,5.1c.43.76,1.43,1.26,1.41,2a1.26,1.26,0,0,1-1,1.14c-1.12,0-1.54-2.29-2.4-3.09-1.91-1.81-3.15-2.43-3.76-1.35s1,4.87,2.16,5.15,2.24.15,2.83.73.78,3.43-.06,3.94c-1.15.7-2.83-1.19-4.29-1.87-2-.92-4.71-1.34-4.71.1s1.43,4.22,3.63,4.22c1.33,0,4-.82,5.33.17.81.6.79,3.48-.06,4-1.74,1.1-5.86-1.47-7.92-2.42s-4.22,2-4.22,3.43,2,2.55,4.22,2.55c1.66,0,6-2.8,7.9-1.61.83.54.7,3.34-.06,4-1.48,1.26-5.33.08-6.86.08-2.19,0-5.79,2.09-5.79,3.53s4,2.75,6.23,2.75c1.5,0,4.17-4.07,6.42-3.06.15.06,3.65,1.74,2.44,4.08-.81,1.55-4.17.55-5.47.55-2.2,0-5.79,2.09-5.79,3.53s4,2.75,6.23,2.75c1.68,0,4-4.8,6.39-4.72,2.14.06,3.89,3.34,3.42,4.93-.15.5-.87.28-1,.21-1.54-.63-3.82-.86-5.38.47C30.81,56,27.21,56.85,28.14,58s5.92,2.55,8.15.66A14.42,14.42,0,0,1,39,56.83c.71-.44,1.07-1.92,1.71-1.88,1.41.08,2.88,1.55,3.17,3.77.21,1.58-.67,3.07-1,3a13,13,0,0,0-2.82-.24c-2.19,0-5.74.33-5.74,1.77s3.55,3.43,5.74,3.43a5.27,5.27,0,0,0,4.08-2.37c.16-.26,1.53-3.06,3.41-3.22,2.51-.23,3.2,5.79,2,5.79-2.19,0-5.74.33-5.74,1.76s3.55,3.44,5.74,3.44c1.2,0,2.64-2.87,3.44-4.75a.84.84,0,0,1,1.49-.08l3.3,4.81a1.12,1.12,0,0,0,1.31.51c.79-.27,1.69-1.22,3.07-2.44a12.38,12.38,0,0,0,2.21-2.68,1.3,1.3,0,0,0-.84-1.75l-8.43-2.17s-.59-.29-.55-.46c.19-.83,1.83-.55,2.79-.86a15.6,15.6,0,0,1,3-.83Z" transform="translate(-19.6 -12.82)"/></g></svg>