<svg xmlns="http://www.w3.org/2000/svg" viewBox="0 0 60.76 58.72"><defs><style>.cls-1{fill:#e2e2e2;}</style></defs><g><path class="cls-1" d="M25.46,61.15A2,2,0,0,1,22.83,61a3.49,3.49,0,0,1-.56-2.59A2.07,2.07,0,0,1,24,56.71c1.39-.07,2.11.6,2.23,1.41C26.41,59.16,26,60.85,25.46,61.15Zm34.42-4.48a2,2,0,0,1,.85,0c.58.15,1.59,1.06,1.52,1.87a3.62,3.62,0,0,1-.75,2.1,2.23,2.23,0,0,1-1.44.57,2.27,2.27,0,0,1-2-2.88A2.14,2.14,0,0,1,59.88,56.67Zm6.18,8.72a6.89,6.89,0,0,1-4.89,3A9.36,9.36,0,0,1,54,66.1c-1.93-1.71-2.2-6.52-2.11-9.4h4.31A6.34,6.34,0,0,0,57,63a4.13,4.13,0,0,0,3.16,1.41A3.86,3.86,0,0,0,63.53,63c1.08-1.44,1.28-3.53,1.23-5.89a4.39,4.39,0,0,0-4.06-3.82l-17.58,0h-2.2L24,53.26a4.89,4.89,0,0,0-4.28,3.56c-.54,2.29-.3,4.71.78,6.15A4.26,4.26,0,0,0,24,64.74a4.07,4.07,0,0,0,3.13-1.3c1.57-1.71,1.6-4.54,1.58-6.73h3.52c.09,2.88-.18,7.69-2.1,9.4a9.36,9.36,0,0,1-7.21,2.32,6.89,6.89,0,0,1-4.89-3c-2.85-4.15-3.54-8.06-2-11.32,1.31-2.75,4-4.42,5.76-4.38,2.5.06,13.46.07,18.8.07h2.93c5.35,0,16.31,0,18.81-.07,1.75,0,4.45,1.63,5.76,4.38C69.6,57.33,68.91,61.24,66.06,65.39ZM26.39,27a2.12,2.12,0,0,1-1.51,1.92c-1.54.33-2-.2-2.34-.79a2.55,2.55,0,0,1-.34-1.21,2.09,2.09,0,0,1,.51-1.61,2.21,2.21,0,0,1,1.9-.82,2.28,2.28,0,0,1,1.78,2.06Zm3.25-.53c0-1.45-1.52-4.35-3.46-4.59-2.16-.26-4.1-.08-5.43,1.1A5.4,5.4,0,0,0,19,26.84a4.74,4.74,0,0,0,1.2,3.39c1.57,1.69,4.31,1.36,6.14.86l.08,4.66c-2.66.1-7.1-.19-8.68-2.28a11.26,11.26,0,0,1-2.15-7.8,7.76,7.76,0,0,1,2.8-5.28c3.83-3.09,7.45-3.84,10.47-2.16a8,8,0,0,1,4,6.23c0,3-.06,16.9-.06,21.82H29.64Zm19.27,5.73V28.93c0,5.66,0,14.17,0,17.35H36c0-1.51,0-3.89,0-6.55H48.91V35.91H36.05c0-1.27,0-2.55,0-3.76Zm9.68-5.85h0c0-1,.73-2.39,1.67-2.25a2.63,2.63,0,0,1,2.51,2.39,1.15,1.15,0,0,1-.25.89,3.16,3.16,0,0,1-2.07,1A2.13,2.13,0,0,1,58.59,26.3Zm-2.46-8.5c3-1.68,6.63-.94,10.46,2.15a7.78,7.78,0,0,1,2.81,5.28A11.31,11.31,0,0,1,67.25,33c-1.58,2.09-6,2.38-8.69,2.28l0-4.6c2.08.65,4.63.78,6.21-.91A4.8,4.8,0,0,0,66,26.41a4.87,4.87,0,0,0-1.63-3.72,7.07,7.07,0,0,0-5.75-1.41c-1.62.31-3.23,3.14-3.23,4.58l-.05,20.41H52.15c0-4.46,0-19.19-.07-22.24a8,8,0,0,1,4.05-6.23Zm6.09,28.42-3.68,0V38.8c3,.12,8.61-.15,11.2-3.56,9-12-4.57-26.39-15.08-20.54a11.46,11.46,0,0,0-5.79,9.4c0,.76,0,2.29,0,4.23H36.07c0-1.73,0-3.09,0-3.8a11.47,11.47,0,0,0-5.79-9.39C19.81,9.29,6.19,23.72,15.24,35.67c2.59,3.42,8.24,3.68,11.19,3.57v7l-4.61,0c-2.74-.06-6.71,2.11-8.69,6.26C8,63.35,20.66,78.94,32.11,68.79c3.16-2.8,3.41-8.91,3.3-12.11H48.63c-.11,3.2.14,9.31,3.3,12.11,11,9.79,24.39-4.94,19-16.31C68.93,48.33,65,46.16,62.22,46.22Z" transform="translate(-11.94 -13.36)"/></g></svg>