<svg xmlns="http://www.w3.org/2000/svg" viewBox="0 0 52.98 52.22"><defs><style>.cls-1{fill:#e2e2e2;stroke:#e2e2e2;stroke-miterlimit:10;stroke-width:0.57px;}</style></defs><g id="Camada_1-2" data-name="Camada_1"><path class="cls-1" d="M63.72,62.19c-2.32,3-5.81,4.58-7.48,3.3s-1.17-4.42.66-7.28L41.49,43.45,29,55.74l-1.79,1.77.51.7h0c1.83,2.86,2.18,6.12.66,7.28s-5.16-.26-7.48-3.3S18,55.38,19.69,54.1a2.41,2.41,0,0,1,1.48-.45,6.06,6.06,0,0,1,3,1,11.18,11.18,0,0,1,1.37,1h0l.6.62L40.46,42.13,26.87,28.47l-.55.56c-2.25,2.36-5.16,3.43-6.63,2.31-1.67-1.28-1.1-5.06,1.22-8.09a11.24,11.24,0,0,1,3-2.74,6.08,6.08,0,0,1,3-1,2.34,2.34,0,0,1,1.47.45c1.42,1.08,1.22,4-.28,6.65l14,14.19L56.81,27.06l-.29-.48C55,23.9,54.83,21,56.25,20a2.32,2.32,0,0,1,1.47-.45,6.08,6.08,0,0,1,3,1,11.24,11.24,0,0,1,3,2.74c2.32,3,2.89,6.81,1.22,8.09-1.48,1.12-4.38.05-6.63-2.31h0l-.59-.64L43,42.33l15.15,14.2.9-.85a9.84,9.84,0,0,1,1.37-1,6.06,6.06,0,0,1,3-1A2.43,2.43,0,0,1,65,54.1C66.62,55.38,66,59.16,63.72,62.19ZM66.53,52c-2.33-1.79-5.93-1.07-9,1.52l-12-11.24L57,31.45l0,0a9.88,9.88,0,0,0,6.44,3,4.94,4.94,0,0,0,3.06-1,5.5,5.5,0,0,0,2-4.54,12.23,12.23,0,0,0-2.73-7.2c-3.32-4.36-8.22-6-11.13-3.79-2.43,1.86-2.61,5.75-.66,9.51l-11.87,11L30.88,26.93c1.69-3.61,1.43-7.27-.91-9-2.91-2.22-7.8-.57-11.13,3.79a12.29,12.29,0,0,0-2.73,7.2,5.53,5.53,0,0,0,2,4.54,5,5,0,0,0,3.07,1,9.78,9.78,0,0,0,6.31-2.86L38,42.12,26.82,53.22l-.06.06c-3-2.36-6.41-3-8.65-1.24-2.92,2.22-2.6,7.38.74,11.74,2.33,3,5.42,4.77,8.06,4.77a5,5,0,0,0,3.07-1A5.48,5.48,0,0,0,32,63a11.67,11.67,0,0,0-1.86-5.94l11.4-11.21L54,58a11.18,11.18,0,0,0-1.35,5,5.48,5.48,0,0,0,2,4.53,5,5,0,0,0,3.07,1c2.64,0,5.73-1.73,8.06-4.77C69.13,59.42,69.45,54.26,66.53,52Z" transform="translate(-15.83 -16.61)"/></g></svg>