<svg xmlns="http://www.w3.org/2000/svg" viewBox="0 0 63.79 64.53"><defs><style>.cls-1{fill:#e2e2e2;}</style></defs><g><g><path class="cls-1" d="M57.36,26.23s3.54,12.35.55,20.88c-2,5.57-9.1,9.22-11.59,8.8-1.27-.21-1.82-.53-1.88-1.43-.06-1.06.81-2.28,2-3.23,1.8-1.41,4-1.73,4.2-3.36.35-3.79-4.94-.48-7.13-2.14a2,2,0,0,1,.28-2.83c1.55-1.47,8.32-3.36,7.2-6.39-.55-1.49-4.65.63-6.82.13-1.7-.39-.95-2.81-.32-3.86v0c1.47-2.41,3.29-3.34,5.94-7a5.29,5.29,0,0,0,1.12-3.61,3.75,3.75,0,0,0-7.44.67c0,.35,0,.81-.25,1a3.48,3.48,0,0,1-2.63.23c-.74-.17-.78-1.48-.83-1.77s-.19-1-.31-1.45a3.17,3.17,0,0,0-2.4-2.26A3.3,3.3,0,0,0,33,21.8a4.61,4.61,0,0,0,.39,1.81c.12.3.93,1.91.71,2-2,1.06-5.74,1.41-8.81,5.13-8.49,10.29-.53,23.65-.53,23.65s-2-7.31,2.35-16.12c2.29-4.63,7.81-7.52,11-7.76.64,0,2.28.59,2.28,1.63a3,3,0,0,1-1.49,2.61c-2.69,1.58-5.48,3.54-5.67,4.91-.09.61.7,1.52,2.17,1.65,2.19.2,3.25-.86,4.6-.07s.82,3-2.11,4a22.36,22.36,0,0,0-3,1.25c-2.36,1.29-2.88,3.77-1.69,4.58,2.19,1.49,4.32-2.38,6.88-.81.92.56.48,2,0,2.7-2,2.57-3.08,1.44-5.6,4.4a9.92,9.92,0,0,0-1.53,2.16,5.49,5.49,0,0,0-.53,2,4,4,0,0,0,3.06,4.33,3.74,3.74,0,0,0,4.22-2.55,1.83,1.83,0,0,1,1.15-1.15A8.11,8.11,0,0,1,43,61.88a.58.58,0,0,1,.6.71,3.38,3.38,0,0,0,2.57,4.11,3.39,3.39,0,0,0,4.1-3.31,5.49,5.49,0,0,0-.69-2.53c-.1-.2.69-.15,1.58-.34,4.1-.88,6.31-1.73,9.83-6.15,9.62-12.07-3.63-28.14-3.63-28.14Z" transform="translate(-10.42 -10.45)"/><path class="cls-1" d="M42.32,68.92a26.21,26.21,0,1,1,26.21-26.2A26.2,26.2,0,0,1,42.32,68.92ZM72,45.54a3.11,3.11,0,0,1,.13-3.48l1.54-2.14a3.14,3.14,0,0,0-.7-4.38l-2.67-1.93A3.12,3.12,0,0,1,69,30.45l.64-3.22a3.11,3.11,0,0,0-2.45-3.69L63,22.68a3.13,3.13,0,0,1-2.39-2.2l-1.2-4.14a3.15,3.15,0,0,0-3.89-2.16L51,15.5a3.17,3.17,0,0,1-3.1-.79l-3.33-3.34a3.15,3.15,0,0,0-4.44,0L37.78,13.7a3.15,3.15,0,0,1-3.32.71l-3.07-1.16a3.14,3.14,0,0,0-4,1.84l-1.52,4a3.13,3.13,0,0,1-2.55,2L19,21.66a3.15,3.15,0,0,0-2.73,3.5l.41,3.35a3.14,3.14,0,0,1-1.47,3l-2.88,1.77a3.14,3.14,0,0,0-1,4.33l1.38,2.24a3.15,3.15,0,0,1-.12,3.48L11,45.52a3.13,3.13,0,0,0,.7,4.38l2.66,1.92A3.14,3.14,0,0,1,15.62,55L15,58.21a3.12,3.12,0,0,0,2.45,3.69l4.23.85A3.18,3.18,0,0,1,24.05,65l1.2,4.15a3.14,3.14,0,0,0,3.89,2.14l4.54-1.32a3.14,3.14,0,0,1,3.08.8l3.34,3.34a3.15,3.15,0,0,0,4.44,0l2.32-2.32A3.14,3.14,0,0,1,50.18,71l3.07,1.15a3.13,3.13,0,0,0,4-1.83l1.52-4a3.13,3.13,0,0,1,2.55-2l4.29-.53a3.12,3.12,0,0,0,2.73-3.49L68,56.93a3.16,3.16,0,0,1,1.47-3.06l2.87-1.77a3.13,3.13,0,0,0,1-4.31Z" transform="translate(-10.42 -10.45)"/></g></g></svg>