<svg xmlns="http://www.w3.org/2000/svg" viewBox="0 0 45.13 61.68"><defs><style>.cls-1{fill:#e2e2e2;}</style></defs><g><path class="cls-1" d="M47.33,59.35c5.16,0,10.72,3.17,11,7.57.12,1.73-1.68,3.27-4.43,3.27-5.17,0-9.18-4.23-9.18-7.9A2.47,2.47,0,0,1,47.33,59.35ZM31.27,70.19c-2.74,0-4.55-1.54-4.43-3.27.29-4.4,5.85-7.57,11-7.57a2.47,2.47,0,0,1,2.6,2.94C40.45,66,36.44,70.19,31.27,70.19ZM64.52,52.12c-2.08-2.4-6-2.75-9.26-2.74-3.91,0-8.89,3.64-10.86,5.19l-.12-5.34c.11-.07,5.81-4.6,10-4.64,4,0,4.72,2.48,6,3.07,1.68.8,3.37-1.2,2.31-2.43-1.87-2.16-5.37-2.59-8.33-2.46-3.53.15-8.41,3.65-10,4.87l-.12-5.26a.55.55,0,0,0,.15-.08s5-4,8.73-4c3.47,0,4.12,2.16,5.21,2.68,1.46.69,2.94-1,2-2.12-1.63-1.88-4.67-2.16-7.26-2.14C49.63,36.69,45.3,40,44.1,41L44,36.36c1.15-.87,5.26-3.78,8.41-3.81,3.47,0,4.11,2.16,5.2,2.68,1.46.69,2.94-1,2-2.12C58,31.23,55,31,52.36,31c-3,0-6.78,2.72-8.4,4l-.1-4.81c1.45-1.11,4.58-3.28,7.12-3.4,3.21-.16,3.89,1.84,4.91,2.28,1.38.59,2.68-1.07,1.79-2-1.58-1.68-4.4-1.83-6.79-1.72s-5.41,2.19-7.06,3.51l-.08-3.38a.42.42,0,0,0,.17-.1s3.59-3.08,6.28-3.21c2.54-.12,3.08,1.46,3.89,1.81,1.09.46,2.12-.85,1.41-1.61C54.26,21,52,20.83,50.13,20.92c-2.48.11-5.59,2.75-6.4,3.46l-.09-4,0,0s3.34-2.88,5.85-3,2.87,1.37,3.63,1.69c1,.43,2-.79,1.32-1.5-1.17-1.24-3.25-1.35-5-1.27-2.21.1-5,2.35-5.85,3.12L43.5,15.3c.9-.7,3-2.39,4.65-2.46,2.05-.1,2.49,1.18,3.14,1.46.88.38,1.72-.69,1.15-1.3-1-1.08-2.82-1.17-4.36-1.1-2,.09-4.49,2.26-5.11,2.81a1.76,1.76,0,0,0-.53-.12,2.48,2.48,0,0,0-.62.12c-.62-.55-3.24-2.72-5.27-2.81-1.53-.07-3.34,0-4.35,1.1-.57.61.26,1.68,1.15,1.3.65-.28,1.09-1.56,3.14-1.46s4.59,2.18,5,2.54l-.09,4c-.92-.79-3.64-3-5.83-3.1-1.76-.08-3.85,0-5,1.27-.66.71.3,1.93,1.32,1.5.75-.32,1.25-1.8,3.62-1.69s5.83,3,5.86,3h0l-.08,3.9C40.41,23.46,37.4,21,35,20.86c-1.89-.08-4.12,0-5.37,1.36-.71.76.32,2.08,1.41,1.61.81-.34,1.35-1.93,3.89-1.81s6.24,3.18,6.28,3.21a.33.33,0,0,0,.1.06l-.08,3.81c-1.54-1.27-4.8-3.72-7.47-3.84-2.39-.11-5.21,0-6.79,1.72-.9,1,.41,2.62,1.79,2,1-.44,1.7-2.44,4.91-2.28,2.81.13,6.35,2.78,7.53,3.72l-.11,4.81c-1.26-1-5.51-4.27-8.81-4.29-2.58,0-5.63.26-7.26,2.14-.92,1.07.56,2.81,2,2.12,1.08-.52,1.73-2.71,5.2-2.68,3.68,0,8.68,4,8.73,4.05l.09,0L41,41.12c-1.09-.88-5.52-4.38-8.93-4.4-2.59,0-5.63.27-7.26,2.15-.93,1.07.55,2.81,2,2.12,1.09-.52,1.73-2.71,5.2-2.68,3.68,0,8.68,4,8.74,4a.61.61,0,0,0,.21.11l-.11,5.45c-1.55-1.24-6.32-4.85-10-4.87-3,0-6.46.3-8.33,2.46-1.07,1.23.63,3.22,2.31,2.43,1.25-.59,2-3.1,6-3.07,4.23,0,10,4.6,10,4.65h0l-.11,5.38c-1.55-1.25-7.05-5.5-11.29-5.53-3.3,0-7.18.34-9.26,2.74-1.18,1.36.7,3.58,2.57,2.7,1.38-.66,2.21-3.45,6.63-3.41,4.69,0,11.07,5.11,11.13,5.16a1.51,1.51,0,0,0,.18.09l0,2a4.54,4.54,0,0,0-2.71-.83c-5.51-.15-13.6,2.6-14.81,8.59a5.27,5.27,0,0,0,1.56,5c1.33,1.42,4.09,2.13,7.13,2.13,5.38,0,10.21-5.33,10.92-9.35a.06.06,0,0,1,.06,0,0,0,0,0,1,0,0c.71,4,5.25,9.35,10.63,9.35,3,0,5.8-.71,7.13-2.13a5.27,5.27,0,0,0,1.56-5c-1.22-6-9.3-8.74-14.81-8.59a4.37,4.37,0,0,0-2.8.91l-.06-2.35c1.22-.93,6.71-4.93,10.88-5,4.42,0,5.25,2.75,6.63,3.41,1.87.88,3.75-1.34,2.57-2.7Z" transform="translate(-19.75 -11.88)"/></g></svg>