<svg xmlns="http://www.w3.org/2000/svg" viewBox="0 0 58.6 54.34"><defs><style>.cls-1{fill:#e2e2e2;stroke:#e2e2e2;stroke-miterlimit:10;stroke-width:0.49px;}</style></defs><g><g><path class="cls-1" d="M70.41,68.68H14.23V16.76H70.41ZM13.27,15.79V69.65h58.1V15.79Z" transform="translate(-13.02 -15.55)"/><path class="cls-1" d="M61.57,62.48l-17.75-16L47.94,43,65.55,59.16v3.32Zm-21.36-13,2.86-2.39,2.64,2.39Zm-2.56,2.13,1.4-1.17h7.73l1.29,1.17ZM35.1,53.71l1.4-1.16H49.13l1.29,1.16Zm-2.55,2.13L34,54.67H51.49l1.29,1.17ZM30,58l1.4-1.17H53.81v0L55.13,58Zm-2.55,2.12,1.4-1.16H56.1v-.09l1.39,1.25Zm-1.16,1H58.55l1.58,1.42H24.58Zm-7.2-1.89L38.54,43l3.81,3.44L28.5,58h-.07V58l-5.35,4.46h-4ZM37.82,42.33,19.09,57.92V25.41ZM25.29,22.23l17.45,16-4.17,3.47L19.09,24.12V22.23ZM46.42,35.17l-2.94,2.45-2.66-2.45ZM49,33l-1.4,1.17H39.77L38.5,33Zm2.55-2.12-1.47,1.23v-.07H37.49v0l-1.31-1.2Zm2.56-2.13L52.69,30H35.13l-1.27-1.17Zm2.55-2.13-1.4,1.17H32.81l-1.27-1.17Zm2.56-2.12L57.8,25.7H30.5l-1.27-1.16Zm1.15-1H28.18l-1.47-1.34H62ZM47.23,42.35,43.1,45.8l-3.81-3.44,4.16-3.47ZM65.55,27.08,48,41.73,44.2,38.27l19.23-16,0,0h2.16Zm0,30.78L48.69,42.39l16.86-14Zm1-36.59H18.13V63.45H66.51Z" transform="translate(-13.02 -15.55)"/></g></g></svg>