<svg xmlns="http://www.w3.org/2000/svg" viewBox="0 0 63.92 15.12"><defs><style>.cls-1{fill:#e2e2e2;fill-rule:evenodd;}</style></defs><path class="cls-1" d="M635.32,451c-1.08.43-3.12,2.78-3.94,3.6-1.11,1.11-3.08,2.21-2.23,4.9.76,2.44,5.1,7.3,8.77,6.1,1.13-.37,3.13-2.66,4-3.5,1.16-1.16,3.14-2.34,2.31-5C643.16,453.74,638.26,449.82,635.32,451Z" transform="translate(-580.48 -450.67)"/><path class="cls-1" d="M587.15,450.78c-1.25.32-3.27,2.61-4.07,3.45-1.29,1.33-3.08,2.32-2.48,4.83.65,2.73,5,7.28,8.63,6.51,1.1-.23,4.61-4.11,5.89-5.35C598.52,456.94,591.15,449.78,587.15,450.78Z" transform="translate(-580.48 -450.67)"/><path class="cls-1" d="M611.16,450.76c-1.28.31-4.83,4.22-5.9,5.35-3.18,3.4,3.94,10.46,8,9.43,1-.25,4.9-4.23,5.88-5.33,2.22-2.5-.73-5.9-2.5-7.45C615.69,451.9,613.15,450.28,611.16,450.76Z" transform="translate(-580.48 -450.67)"/></svg>