<svg xmlns="http://www.w3.org/2000/svg" xmlns:xlink="http://www.w3.org/1999/xlink" viewBox="0 0 36.02 36.02">
   <defs>
      <style>
      .instagram-svg-1{fill:url(#Gradiente_sem_nome);}
      .instagram-svg-2{fill:url(#Gradiente_sem_nome_2);}
      .instagram-svg-3{fill:#fff;}</style>
      <radialGradient id="Gradiente_sem_nome" cx="19.38" cy="7.96" r="44.9" gradientTransform="matrix(1, 0, 0, -1, 0, 50)" gradientUnits="userSpaceOnUse">
         <stop offset="0" stop-color="#fd5"/>
         <stop offset="0.33" stop-color="#ff543f"/>
         <stop offset="0.35" stop-color="#fc5245"/>
         <stop offset="0.5" stop-color="#e64771"/>
         <stop offset="0.64" stop-color="#d53e91"/>
         <stop offset="0.76" stop-color="#cc39a4"/>
         <stop offset="0.84" stop-color="#c837ab"/>
      </radialGradient>
      <radialGradient id="Gradiente_sem_nome_2" cx="11.79" cy="-141.35" r="29.81" gradientTransform="matrix(1, 0, 0, -0.67, 0, -88.64)" gradientUnits="userSpaceOnUse">
         <stop offset="0" stop-color="#4168c9"/>
         <stop offset="1" stop-color="#4168c9" stop-opacity="0"/>
      </radialGradient>
   </defs>
   <path class="instagram-svg-1" d="M34,42,14,42a8,8,0,0,1-8-8L6,14a8,8,0,0,1,8-8L34,6a8,8,0,0,1,8,8l0,20A8,8,0,0,1,34,42Z" transform="translate(-5.99 -5.99)"/>
   <path class="instagram-svg-2" d="M34,42,14,42a8,8,0,0,1-8-8L6,14a8,8,0,0,1,8-8L34,6a8,8,0,0,1,8,8l0,20A8,8,0,0,1,34,42Z" transform="translate(-5.99 -5.99)"/>
   <path class="instagram-svg-3" d="M24,31a7,7,0,1,1,7-7A7,7,0,0,1,24,31Zm0-12a5,5,0,1,0,5,5A5,5,0,0,0,24,19Z" transform="translate(-5.99 -5.99)"/>
   <circle class="instagram-svg-3" cx="25.51" cy="10.51" r="1.5"/>
   <path class="instagram-svg-3" d="M30,37H18a7,7,0,0,1-7-7V18a7,7,0,0,1,7-7H30a7,7,0,0,1,7,7V30A7,7,0,0,1,30,37ZM18,13a5,5,0,0,0-5,5V30a5,5,0,0,0,5,5H30a5,5,0,0,0,5-5V18a5,5,0,0,0-5-5Z" transform="translate(-5.99 -5.99)"/>
</svg>