<svg xmlns="http://www.w3.org/2000/svg" viewBox="0 0 58.55 36"><defs><style>.cls-1{fill:#e2e2e2;}</style></defs><g><path class="cls-1" d="M69,32.3l-18.24.25a1.12,1.12,0,0,1-1.14-1.12h0a1.13,1.13,0,0,1,1.12-1.12l18-.07a2.56,2.56,0,0,0,2.58-2.61v-.41a2.56,2.56,0,0,0-2.61-2.5s-18.29,1-24.39,1.07c-2.89,0-8.67-.32-11.56-.32s-9.1.32-12,1.33a10.76,10.76,0,0,0-6.18,5.6A9.71,9.71,0,0,0,14.35,40c1.38,3.52,5.92,6.11,11.16,4.35a7.13,7.13,0,0,0,4.34-3.63,6.65,6.65,0,0,0,.2-5.24,6.14,6.14,0,0,0-3.83-3.84,6.05,6.05,0,0,0-5.1.51,5.41,5.41,0,0,0-2.42,4.26A4.23,4.23,0,0,0,20.65,40a3.61,3.61,0,0,0,2.72.42,3.1,3.1,0,0,0,1.71-.93,1.36,1.36,0,0,0-.13-2,1.23,1.23,0,0,0-1.72.4,1.42,1.42,0,0,1-1.18.11,1.74,1.74,0,0,1-.87-1.53,2.89,2.89,0,0,1,1.28-2.22,3.63,3.63,0,0,1,3-.25,3.67,3.67,0,0,1,2.3,2.34,4.26,4.26,0,0,1-.11,3.33A4.74,4.74,0,0,1,24.73,42c-3.79,1.27-7.14-.52-8.07-2.91a7.22,7.22,0,0,1,.19-5.69,8.26,8.26,0,0,1,4.75-4.3,8.52,8.52,0,0,1,6.77.5,9.36,9.36,0,0,1,4.56,5.26,10.07,10.07,0,0,1-.41,7.73l-.07.15a8.39,8.39,0,0,1-7.53,4.54H15.6a2.55,2.55,0,0,0-2.55,2.55v.41a2.54,2.54,0,0,0,2.63,2.55l17.42-.57a1.26,1.26,0,0,1,1.29,1.22h0a1.25,1.25,0,0,1-1.22,1.27l-16.39.42a2.56,2.56,0,0,0-2.55,2.56v.4a2.56,2.56,0,0,0,2.63,2.56,71.16,71.16,0,0,0,8-.18c5.19-.43,11.32-1.41,14.39-1.5,4.85-.14,9.41.24,12.54.43a66.78,66.78,0,0,0,7.85-.1l.77-.08a10.91,10.91,0,0,0,2-.49,10.75,10.75,0,0,0,6.17-5.6,9.73,9.73,0,0,0,.25-7.63C67.49,42,63,39.42,57.71,41.19a7.13,7.13,0,0,0-4.34,3.63,6.33,6.33,0,0,0-.62,3.12,6.88,6.88,0,0,0,.42,2.12A7.27,7.27,0,0,0,54,51.63a6.13,6.13,0,0,0,8.12,1.76,5.42,5.42,0,0,0,2.42-4.26,4.23,4.23,0,0,0-1.95-3.61,3.61,3.61,0,0,0-2.72-.43,3,3,0,0,0-2,1.28,1.26,1.26,0,0,0,.41,1.71,1.22,1.22,0,0,0,1.7-.41,1.36,1.36,0,0,1,1.18-.11,1.75,1.75,0,0,1,.88,1.53,2.93,2.93,0,0,1-1.29,2.22,3.65,3.65,0,0,1-3,.25l-.12-.05a3.54,3.54,0,0,1-2.08-2,1.86,1.86,0,0,1-.1-.25,4.22,4.22,0,0,1,.1-3.33,4.76,4.76,0,0,1,2.9-2.35c3.79-1.28,7.13.52,8.06,2.9a7.2,7.2,0,0,1-.19,5.7,8.21,8.21,0,0,1-4.75,4.29,8.45,8.45,0,0,1-6.76-.49,9.23,9.23,0,0,1-4.12-4.21,7.58,7.58,0,0,1-.46-1,10.27,10.27,0,0,1-.57-3.36,10.14,10.14,0,0,1,1-4.37,8.25,8.25,0,0,1,5.9-4.85C59,37.71,69,37.81,69,37.81a2.54,2.54,0,0,0,2.63-2.55v-.4A2.56,2.56,0,0,0,69,32.3Z" transform="translate(-13.05 -24.72)"/></g></svg>