<svg xmlns="http://www.w3.org/2000/svg" viewBox="0 0 57.82 61.02"><defs><style>.cls-1{fill:#e2e2e2;}</style></defs><g><path class="cls-1" d="M64.65,33.94a11,11,0,0,1-1.5,4.88,3.6,3.6,0,0,1-3.38,1.78,1.51,1.51,0,0,1-1.19-2.34c.06,0,2.28-2.34,2.28-3.64a2.42,2.42,0,0,0-2.71-2.36,5.07,5.07,0,0,0-4.6,4.65c-.19,4.43,1.6,6.1,2.43,6.63-.67.35-2.86,1.88-2.65,6.75A5.09,5.09,0,0,0,57.93,55a2.43,2.43,0,0,0,2.71-2.36c0-1.3-2.19-3.06-2.24-3.05a1.52,1.52,0,0,1,1.18-2.35c.67-.13,2,.9,3,2.54a15.92,15.92,0,0,1,1.74,7.83c-.11.45-.24.88-.38,1.29C62.48,63.09,58.21,64,56.41,64c-4.18,0-8.7-3.24-9.67-19.74-.86-14.72,5.37-20.64,9.55-20.46C63.07,24.12,64.93,30.68,64.65,33.94ZM40.38,43.23c0-2.92.88-12,2.18-12s2.36,8.36,2.31,12c0,3.32-.68,13.48-2.17,13.48S40.36,46.5,40.38,43.23ZM37.9,44.29C36.93,60.79,32.41,64,28.23,64c-1.8,0-6.07-.94-7.56-5.18a12.14,12.14,0,0,1-.38-1.29A16.13,16.13,0,0,1,22,49.73c1-1.64,2.37-2.67,3-2.54a1.52,1.52,0,0,1,1.18,2.35S24,51.29,24,52.59A2.43,2.43,0,0,0,26.71,55a5.07,5.07,0,0,0,4.59-4.66c.22-4.87-2-6.4-2.65-6.75.84-.53,2.63-2.2,2.44-6.63a5.09,5.09,0,0,0-4.6-4.65,2.42,2.42,0,0,0-2.71,2.36c0,1.3,2.22,3.64,2.27,3.64a1.51,1.51,0,0,1-1.18,2.34,3.6,3.6,0,0,1-3.38-1.78A11,11,0,0,1,20,33.94c-.28-3.26,1.57-9.82,8.36-10.11C32.53,23.65,38.76,29.57,37.9,44.29ZM71.23,32c0-2.74-.45-8-4.27-11.27-4.31-3.7-8-4.22-10.69-4a20,20,0,0,0-9.45,3.82s-1.88-8.35-4.22-8.35-4.37,8.66-4.37,8.66a20.17,20.17,0,0,0-9.86-4.13c-2.68-.27-6.38.25-10.69,4C13.86,24,13.39,29.22,13.41,32c.06,9.59,5,11.92,5,11.92s-5,6.56-5,12.06c0,3.69,1.77,13.2,12.44,14.72,7.92,1.13,12.77-4.93,12.77-4.93v-.38s1.76,7.88,4,7.88c2,0,3.65-7.23,3.65-7.23a14.55,14.55,0,0,0,12.54,4.66c10.67-1.52,12.47-11,12.43-14.72,0-5.5-5-12.06-5-12.06S71.17,41.55,71.23,32Z" transform="translate(-13.41 -12.21)"/></g></svg>