<svg xmlns="http://www.w3.org/2000/svg" viewBox="0 0 62.7 61.58"><defs><style>.cls-1{fill:#e2e2e2;fill-rule:evenodd;}</style></defs><g><g><path class="cls-1" d="M44.81,62.56c.71-.19.55.56.54,1.27s0,1.27,0,1.91c-.06,1.28.06,2.69,0,3.86.08.13.17-.07.23.6-.21.14-.06.14-.41.21a18.27,18.27,0,0,1-3.74-.12l-.06-7.84a9.77,9.77,0,0,1,1.77-.15C44.37,62.21,44.43,62.1,44.81,62.56ZM32.29,41.09c1.67-1.78,9.65.38,12.52.53,3.84.2,9.71.13,11.49,2.81-.07,2.25-3.61,6.85-4.7,8.21-4.1,5.14-10.85,9-17.62,5.65-3.28-1.62-5.73-4-7.94-5.07.76-1.19,3-1.26,4.15-1a13.09,13.09,0,0,1,3.68,1.84c1.8,1.18,5.06,4,8,2.65L42,55.12c-2.77-1.71-13.83-4.63-15-6.4-.19-.76,1.3-1.59,2.19-1.42A29.53,29.53,0,0,1,32,48.38a106.33,106.33,0,0,0,10.7,4.24c1,.3,1.87.52,2.88.76,1.66.39,1.92.66,2.73-.52C47.61,50,43,50.52,38.52,49.33a28.49,28.49,0,0,1-5-1.76c-1-.5-3.28-1.9-3.49-3.08,4.94-.51,8.58.79,12.48,2.2,1.62.59,7.06,2.55,8.64,2.39.82-.09,2-1.73,2-1.79a2.52,2.52,0,0,0-2-1.19,52.55,52.55,0,0,1-8.63-1.61L34.4,42.44C33,42.07,32.81,42.36,32.29,41.09ZM22.08,51.71c-1.16-.28-1.61-2.46-1.55-3.79.16-3.27,3.69-8.92,8.14-8.35-.11,1-3.35,4.34-4,5.2a14.16,14.16,0,0,0-1.81,3C22,49.88,22.34,50.88,22.08,51.71Zm-4.44-4.89c0-2.4,0-4.64,1.28-6.35A6.17,6.17,0,0,1,24,38c-.68,2.24-3.61,2.5-4.07,3.68S19.47,46.37,17.64,46.82Zm40.72-9.23c-.14-1.24.72-1.86,1.89-1.92a9.81,9.81,0,0,1,.51,2.91c-.87,0-.78-.19-1.28-.53S58.88,37.86,58.36,37.59ZM14,41.51c0-5.57,5.74-8,7.65-5.51a2.68,2.68,0,0,1-2,1.25c-1.53.25-1.66-.24-2.44.9S16.13,41.93,14,41.51Zm42.08-.58c-1.71.6-4.72-2-4.64-2.84A9.24,9.24,0,0,1,53,35.59c.9-.9,1.47-.94,3-.94-.28,1.42-1.34,2.42-1.56,3.5C54.15,39.7,56.81,39.32,56.12,40.93Zm-42-5.32c-1.25-.26-.86-2-.31-2.81s1.33-1.27,2.85-1.2c-.13.39-.51.52-.84.82C14.73,33.4,14.65,34.5,14.09,35.61Zm22-13.48c-10.74.58-1.48-10.8,1.47-4.47C38.38,19.45,36.83,21,36.07,22.13ZM57,32.54c-1-5.78,7-8.51,6.35-15-2-.15-3.77,1.42-4.67,2.4-3,3.25-4.12,9.61-7.45,13.54-5.07,6-14.87,6.07-21.46,3.67a21.74,21.74,0,0,1-8.59-5.58c-6.89-8.33,4.32-15.08,10-8.44,3,3.44,4,7.6,5.15,8.81,1-.67.7-2.69,1.34-3.87,1.83.11,1.39,2.74,3.28,2.29.54-1.12.58-6.07.46-7.6a15.21,15.21,0,0,0-1.8-6.3c-1.9-3.45-6-5.27-11.37-4.31-4.77.85-7.67,3.59-10.1,5.93a22.63,22.63,0,0,0-6,10.06c-1.12,3.63-1.95,10.41-.1,13.87,3.7,6.91,7.25,13.66,14.71,17.41,3.87,1.95,7.89,1.93,11.55,4.53v6.06c-2,.2-4.62-.19-6.5.06s-2.09,3,.44,3.06c2.14,0,4.38,0,6.53,0,1.28,0,2,.22,3.18.23,3.6,0,13.78.46,15.56-.69a1.5,1.5,0,0,0,.29-2.3c-.71-.71-1.55-.41-2.59-.16a43.79,43.79,0,0,1-6.17,0c-.12-1.71,0-3.87,0-5.64a27.8,27.8,0,0,0-.6-5.26c4.64-2.25,5.15-.79,6.28-.72.35-2.18-.85-3.88-.38-5.82,2.05-.14,2.44,1.32,4,.9.32-2.08-.71-2.17-.66-3.89,1.4-1.51,1.66.33,3.56-.22.19-1.64-1-1.39-.94-4a13.92,13.92,0,0,0,3-.72,1.64,1.64,0,0,0-1-1.67c-.9-.51-1.33-.32-1.47-1a37.31,37.31,0,0,1,4.37-1.27c.32-1.68-1.08-1-1-2.9,2.67-1,7.86.6,9.31-1.71-.78-2.69-7.09-.37-9.24-1.45,0-2.56,8.23-1.75,7.67-5.79-3.59-.55-8.34,3.07-10.64,3.46.32-2,2.46-3.52,3.67-4.55,1.63-1.38,2.82-2.45,2-5.54a3,3,0,0,0-3.3,1.82c-.74,1.58.33.92-1.31,2.5-1.31,1.26-4,5.39-5.44,5.77Z" transform="translate(-10.97 -11.93)"/><path class="cls-1" d="M43.48,36.65c.83-1.32,2-2,1.59-3.56-.42-1.72-2-2.21-3.68-1.52a2.7,2.7,0,0,0-.62,4.87A6.28,6.28,0,0,0,43.48,36.65Z" transform="translate(-10.97 -11.93)"/></g></g></svg>