<svg xmlns="http://www.w3.org/2000/svg" viewBox="0 0 53.78 53.08"><defs><style>.cls-1{fill:#373435;}</style></defs><g><g><path class="cls-1" d="M59.38,38.67a6.07,6.07,0,0,0,1.34-3.84,5.29,5.29,0,1,0-10.53,0,6.07,6.07,0,0,0,1.18,3.64,9.37,9.37,0,0,1-4.86-8.27,9.07,9.07,0,1,1,18.14,0A9.34,9.34,0,0,1,59.38,38.67Zm-3.8-22.49A13.83,13.83,0,0,0,42,30.2a13.64,13.64,0,1,0,27.26,0A13.83,13.83,0,0,0,55.58,16.18Z" transform="translate(-15.43 -16.18)"/><path class="cls-1" d="M32.86,38.67a6.07,6.07,0,0,0,1.34-3.84,5.52,5.52,0,0,0-5.26-5.75,5.52,5.52,0,0,0-5.27,5.75,6.07,6.07,0,0,0,1.18,3.64A9.37,9.37,0,0,1,20,30.2a9.07,9.07,0,1,1,18.14,0A9.34,9.34,0,0,1,32.86,38.67Zm-3.8-22.49a13.83,13.83,0,0,0-13.63,14,13.84,13.84,0,0,0,13.63,14,13.85,13.85,0,0,0,13.63-14A13.84,13.84,0,0,0,29.06,16.18Z" transform="translate(-15.43 -16.18)"/><path class="cls-1" d="M59.38,63.7a6.07,6.07,0,0,0,1.34-3.84,5.29,5.29,0,1,0-10.53,0,6.09,6.09,0,0,0,1.18,3.64,9.37,9.37,0,0,1-4.86-8.27,9.07,9.07,0,1,1,18.14,0A9.34,9.34,0,0,1,59.38,63.7Zm-3.8-22.5a14,14,0,1,0,13.63,14A13.84,13.84,0,0,0,55.58,41.2Z" transform="translate(-15.43 -16.18)"/><path class="cls-1" d="M32.86,63.7a6.07,6.07,0,0,0,1.34-3.84,5.52,5.52,0,0,0-5.26-5.76,5.53,5.53,0,0,0-5.27,5.76,6.09,6.09,0,0,0,1.18,3.64A9.37,9.37,0,0,1,20,55.23a9.07,9.07,0,1,1,18.14,0A9.34,9.34,0,0,1,32.86,63.7Zm-3.8-22.5a14,14,0,0,0,0,28.06,14,14,0,0,0,0-28.06Z" transform="translate(-15.43 -16.18)"/></g></g></svg>