<svg xmlns="http://www.w3.org/2000/svg" viewBox="0 0 47.53 51.54"><defs><style>.cls-1{fill:#e2e2e2;}</style></defs><g><path class="cls-1" d="M63.13,51.26H59.25V36.32h3.88Zm-11.52,0V36.32H56.3V51.26ZM36,51.26V45.13H48.65v6.13Zm-7.65,0V36.32H33V51.26Zm-6.83,0V36.32h3.87V51.26Zm27.14-9.09H36V36.32H48.65ZM66.08,19.91V17H48.65V33.37H36V17H18.55v3H33v3.85H18.55v3H33v6.65H18.55V54.22H33v4.5H18.55v3H33v3.86H18.55v3H36V54.22H48.65V68.49H66.08v-3H51.61V61.67H66.08v-3H51.61v-4.5H66.08V33.37H51.61V26.72H66.08v-3H51.61V19.91Z" transform="translate(-18.55 -16.95)"/></g></svg>