<svg xmlns="http://www.w3.org/2000/svg" viewBox="0 0 53.97 53.97"><defs><style>.cls-1{fill:#fff;}</style></defs><g id="Camada_2" data-name="Camada 2"><g id="Camada_1-2" data-name="Camada 1"><g id="Camada_1-3" data-name="Camada_1"><g id="_2191371696464" data-name=" 2191371696464"><path class="cls-1" d="M27,21.32A5.67,5.67,0,1,0,32.65,27,5.67,5.67,0,0,0,27,21.32Zm0,14.59A8.93,8.93,0,1,1,35.91,27,8.93,8.93,0,0,1,27,35.91Z"/><path class="cls-1" d="M27,12.72A14.27,14.27,0,1,0,41.25,27,14.28,14.28,0,0,0,27,12.72Zm0,31.79A17.53,17.53,0,1,1,44.51,27,17.54,17.54,0,0,1,27,44.51Z"/><path class="cls-1" d="M27,3.26A23.73,23.73,0,1,0,50.71,27,23.76,23.76,0,0,0,27,3.26ZM27,54A27,27,0,1,1,54,27,27,27,0,0,1,27,54Z"/></g></g></g></g></svg>