<svg id="Camada_1" data-name="Camada 1" xmlns="http://www.w3.org/2000/svg" viewBox="0 0 55.66 41.15"><defs><style>.cls-1{fill:#373435;}</style></defs><g id="Camada_1-2" data-name="Camada_1"><path class="cls-1" d="M55.21,46.91A13.16,13.16,0,0,1,51.58,56H48.82a11.2,11.2,0,0,0-4.35-20.09c1.16-.06,2.62-.17,4.23-.38A13.22,13.22,0,0,1,55.21,46.91Zm-26.42,0a13.22,13.22,0,0,1,6.63-11.45c1.79.25,3.4.38,4.67.45A11.2,11.2,0,0,0,35.72,56h-3.3A13.16,13.16,0,0,1,28.79,46.91ZM39.55,56A9.49,9.49,0,1,1,45,56ZM70.06,23.67c.46-1.6-1.08-1.78-1.88-1.26a96.46,96.46,0,0,1-11.44,6.21,32.07,32.07,0,0,1-12.47,2.44c-.87,0-1.52,0-2,.07s-1.09-.06-2-.07A32.07,32.07,0,0,1,27.9,28.62a96.46,96.46,0,0,1-11.44-6.21c-.8-.52-2.34-.34-1.89,1.26.42,1.45,2.67,3.74,8.37,7.63a27.18,27.18,0,0,0,10,3.75,14.28,14.28,0,0,0-2,1.82l-3.74-2.1,3.1,2.86a15.48,15.48,0,0,0-1.14,1.64L25,37.46l3.63,2.74a13.29,13.29,0,0,0-.61,1.39l-4.52-.37,4.17,1.36a15.14,15.14,0,0,0-.44,1.91l-4.58.09,4.44,1c0,.45-.06.9-.06,1.36a2.44,2.44,0,0,0,0,.27L22.75,48.4l4.37-.18a15.22,15.22,0,0,0,.3,1.93l-4.31,1.69,4.58-.64a14.59,14.59,0,0,0,.53,1.49l-4.06,2.14,4.52-1.16A14.37,14.37,0,0,0,30.16,56H15v7.29H69.27V56H53.84a14.42,14.42,0,0,0,1.54-2.45l4.72,1.21-4.25-2.24c.18-.45.34-.91.48-1.37l4.76.67-4.48-1.76a16.33,16.33,0,0,0,.27-1.86l4.77.2-4.71-1.33v-.16c0-.43,0-.87-.06-1.3l4.72-1-4.86-.09a15,15,0,0,0-.41-1.79l4.54-1.48-4.9.4c-.16-.41-.33-.81-.52-1.21l3.92-2.95-4.46,1.95a15.32,15.32,0,0,0-1-1.57l3.33-3.07-4,2.25a14.65,14.65,0,0,0-2-1.87A28.08,28.08,0,0,0,61.7,31.3c5.7-3.89,8-6.18,8.36-7.63Z" transform="translate(-14.49 -22.15)"/></g></svg>