<svg xmlns="http://www.w3.org/2000/svg" viewBox="0 0 39.65 67.53"><defs><style>.cls-1{fill:#373435;fill-rule:evenodd;}</style></defs><g ><g ><path class="cls-1" d="M38.93,46.33c7-2.22,13.62,2.61,15.2,8.14a12.62,12.62,0,0,1-8.46,15.74C29.74,74.22,22.67,51.45,38.93,46.33Zm-6.57-6.7a77.58,77.58,0,0,1,4.82-9.55l5.31-8.91,9.69,18.44Zm24,7.16c-1.13-1.41-.77,1.83-1-1.75,1.49.08,6.13.84,6-.72C59,38.73,54.78,32.15,51.82,26.6,49.53,22.3,44.78,12,42.19,9L22.49,45.3l6.27.16c-1.33,2.82-3.26,4-4.3,8.39a18.33,18.33,0,0,0,16.65,22.6C56.71,77.39,66.68,58.83,56.33,46.79Z" transform="translate(-22.49 -8.95)"/><path class="cls-1" d="M56.33,46.79c-.33-1.47,3.5-.89,5.51-1.15.62-2.69.2-.24-.49-1.32.14,1.56-4.5.8-6,.72C55.56,48.62,55.2,45.38,56.33,46.79Z" transform="translate(-22.49 -8.95)"/></g></g></svg>