<svg id="Camada_1" data-name="Camada 1" xmlns="http://www.w3.org/2000/svg" viewBox="0 0 41.54 55.56"><defs><style>.cls-1{fill:#373435;}</style></defs><g id="Camada_1-2" data-name="Camada_1"><path class="cls-1" d="M49.89,65.76c-1.43,0-3.58-1.89-5-5.29a17.27,17.27,0,0,1-.51-4.54,1.45,1.45,0,0,1,1.46-1.48H46a1.92,1.92,0,0,1,1.58.93,1.6,1.6,0,0,0,1.11.8c1.12.15,2.22-1.16,2.47-2.94s-.47-3.35-1.58-3.5a2,2,0,0,0-1.81,1.08,1.72,1.72,0,0,1-1.48.78H44.41a3.82,3.82,0,0,0-.79-1.53,2.08,2.08,0,0,1-.57-1.34V46.26A2.23,2.23,0,0,1,43.5,45a4.16,4.16,0,0,0,.28-.51,1,1,0,0,1,.94-.63h1.61a1.28,1.28,0,0,1,1.2.86c.42,1.13,1.19,1.89,2.07,1.89C51,46.59,52,44.85,52,42.72S51,38.84,49.6,38.84c-1,0-1.79.89-2.18,2.18a1.29,1.29,0,0,1-1.21.93H44.88a1,1,0,0,1-1-.74,6.24,6.24,0,0,1-.68-1.53,26.3,26.3,0,0,1,.15-5.56.71.71,0,0,1,.71-.6h2.6a1.26,1.26,0,0,1,1.16.8c.44,1,1.19,1.63,2,1.55,1.13-.11,1.89-1.65,1.72-3.43s-1.23-3.15-2.35-3a1.6,1.6,0,0,0-1.19.83,1.34,1.34,0,0,1-1.1.65H45.3a.87.87,0,0,1-.86-.92c0-.58.08-1.25.12-1.38,1.51-5.45,3.63-8.9,5.33-8.9,3,0,6.24,10.71,6.24,24.09S53,65.76,49.89,65.76Zm-15.14,0c-3.06,0-6.25-8.65-6.25-22s3.28-24.09,6.25-24.09c1.64,0,3.67,3.22,5.17,8.35A9,9,0,0,1,40.21,30a.86.86,0,0,1-.86.93H37.81a1.21,1.21,0,0,1-1-.59,1.78,1.78,0,0,0-1.45-1c-1.12,0-2,1.45-2,3.25s.92,3.25,2,3.25c.74,0,1.38-.62,1.74-1.56a1.13,1.13,0,0,1,1-.75h1.76a.71.71,0,0,1,.72.69,43.37,43.37,0,0,1,.25,5.57c0,.75-1.2,2.17-1.68,2.17H38.1A1.16,1.16,0,0,1,37,41.2c-.43-1.09-1.18-1.82-2.05-1.82-1.34,0-2.43,1.74-2.43,3.87s1.09,3.87,2.43,3.87c1,0,1.88-1,2.24-2.4a1.14,1.14,0,0,1,1.11-.88h1.24a1,1,0,0,1,.9.55l.16.29a1.85,1.85,0,0,1,.24,1v3.58a1.8,1.8,0,0,1-.38,1.12,5.15,5.15,0,0,0-.63,1.24H38.09a1.65,1.65,0,0,1-1.44-.87,2,2,0,0,0-1.74-1.23c-1.13.08-1.93,1.6-1.81,3.39s1.14,3.18,2.27,3.1a1.68,1.68,0,0,0,1.23-.81A1.62,1.62,0,0,1,38,54.45h.23a1.46,1.46,0,0,1,1.47,1.46,17.37,17.37,0,0,1-.44,4.58C37.84,63.86,36.17,65.76,34.75,65.76ZM50.84,14.94a6.64,6.64,0,0,0-5.09,2.7,4.45,4.45,0,0,1-6.86,0,6.64,6.64,0,0,0-5.09-2.7c-7.57,0-12.25,15-12.25,29,0,12.89,4.29,26.58,12.25,26.58A7,7,0,0,0,39.06,68a4.41,4.41,0,0,1,6.52,0,7,7,0,0,0,5.26,2.5c8,0,12.25-13.69,12.25-26.58C63.09,30,58.41,14.94,50.84,14.94Z" transform="translate(-21.55 -14.94)"/></g></svg>